<svg width="39" height="41" viewBox="0 0 39 41" fill="none" xmlns="http://www.w3.org/2000/svg">
<ellipse cx="19.4701" cy="20.5537" rx="19.0902" ry="20.0992" fill="white"/>
<path d="M14.734 19.5381C16.0027 22.6495 18.0425 25.1947 20.5403 26.7779L22.4787 24.3537C22.721 24.0513 23.069 23.9634 23.373 24.0843C24.3598 24.4911 25.4215 24.711 26.5185 24.711C27.0075 24.711 27.3996 25.2002 27.3996 25.8104V29.6585C27.3996 30.2687 27.0075 30.7579 26.5185 30.7579C18.2451 30.7579 11.54 22.3912 11.54 12.0674C11.54 11.4572 11.9365 10.968 12.4211 10.968H15.5049C15.9939 10.968 16.386 11.4572 16.386 12.0674C16.386 13.4362 16.5622 14.761 16.8882 15.9924C16.9851 16.3717 16.9147 16.806 16.6724 17.1083L14.734 19.5381Z" fill="#01AAEB"/>
</svg>
