<svg width="31" height="29" viewBox="0 0 31 29" fill="none" xmlns="http://www.w3.org/2000/svg">
<g filter="url(#filter0_d)">
<path d="M19.5498 9.55374V3.20663L15.8657 0.0330811L12.1816 3.20663V5.32234H4.81348V20.1323H26.9179V9.55374H19.5498ZM9.72557 18.0166H7.26952V15.9009H9.72557V18.0166ZM9.72557 13.7851H7.26952V11.6694H9.72557V13.7851ZM9.72557 9.55374H7.26952V7.43804H9.72557V9.55374ZM17.0937 18.0166H14.6377V15.9009H17.0937V18.0166ZM17.0937 13.7851H14.6377V11.6694H17.0937V13.7851ZM17.0937 9.55374H14.6377V7.43804H17.0937V9.55374ZM17.0937 5.32234H14.6377V3.20663H17.0937V5.32234ZM24.4619 18.0166H22.0058V15.9009H24.4619V18.0166ZM24.4619 13.7851H22.0058V11.6694H24.4619V13.7851Z" fill="#01AAEB"/>
</g>
<defs>
<filter id="filter0_d" x="0.813477" y="0.0330811" width="30.1044" height="28.0992" filterUnits="userSpaceOnUse" color-interpolation-filters="sRGB">
<feFlood flood-opacity="0" result="BackgroundImageFix"/>
<feColorMatrix in="SourceAlpha" type="matrix" values="0 0 0 0 0 0 0 0 0 0 0 0 0 0 0 0 0 0 127 0"/>
<feOffset dy="4"/>
<feGaussianBlur stdDeviation="2"/>
<feColorMatrix type="matrix" values="0 0 0 0 0 0 0 0 0 0 0 0 0 0 0 0 0 0 0.25 0"/>
<feBlend mode="normal" in2="BackgroundImageFix" result="effect1_dropShadow"/>
<feBlend mode="normal" in="SourceGraphic" in2="effect1_dropShadow" result="shape"/>
</filter>
</defs>
</svg>
